<svg width="212" height="150" xmlns="http://www.w3.org/2000/svg">
 <g>
  <title>Layer 1</title>
  <g stroke="null" id="svg_1">
   <g stroke="null" id="svg_2">
    <g stroke="null" id="svg_3">
     <path stroke="null" id="svg_4" d="m109.93359,132.63435c-14.70741,0 -26.26324,-24.85159 -26.26324,-56.00636c0,-12.60635 1.73994,-24.16218 5.25265,-33.61695l3.15159,1.41165c-3.15159,9.45477 -4.89153,20.64947 -4.89153,32.89471c0,28.3643 10.5053,52.49365 22.75053,52.49365s22.75053,-24.16218 22.75053,-52.49365s-10.5053,-52.49365 -22.75053,-52.49365c-2.46218,0 -4.89153,1.05053 -7.35371,3.15159l-2.10106,-2.79047c3.15159,-2.46218 6.30318,-3.841 9.81589,-3.841c14.70741,0 26.26324,24.85159 26.26324,56.00636s-11.91694,55.28412 -26.62436,55.28412z" fill="#014387"/>
    </g>
    <g stroke="null" id="svg_5">
     <path stroke="null" id="svg_6" d="m139.34842,113.00257c-11.88412,0 -27.31377,-4.56324 -42.34947,-13.65688c-12.60635,-7.35371 -23.43994,-16.80847 -30.10424,-25.90212c-6.99259,-9.81589 -8.76536,-18.54841 -5.25265,-24.85159c7.35371,-12.60635 34.66748,-10.5053 61.5873,5.25265c10.86642,6.30318 20.28835,13.65688 26.59153,21.33888l-2.79047,2.10106c-6.6643,-7.35371 -15.39682,-15.0357 -25.90212,-20.64947c-24.85159,-14.34629 -50.75371,-17.13676 -57.05689,-6.6643c-2.79047,4.89153 -1.05053,12.60635 4.89153,21.01059c6.6643,9.09365 16.80847,17.859 29.05371,24.85159c24.85159,14.34629 50.75371,17.13676 57.05689,6.6643c1.05053,-2.10106 1.41165,-4.56324 1.41165,-6.99259l3.51271,-0.36112c0.36112,3.51271 -0.36112,6.6643 -1.73994,9.09365c-3.15159,5.97489 -10.14418,8.76536 -18.90953,8.76536z" fill="#014387"/>
    </g>
    <g stroke="null" id="svg_7">
     <path stroke="null" id="svg_8" d="m80.55159,113.00257c-9.09365,0 -16.08623,-2.79047 -18.90953,-8.40424c-1.41165,-2.79047 -2.10106,-5.61377 -1.73994,-9.09365l3.51271,0.36112c-0.36112,2.79047 0.36112,4.89153 1.41165,6.99259c6.30318,10.86642 32.2053,7.71483 57.05689,-6.6643c12.60635,-7.35371 22.75053,-16.08623 29.05371,-24.85159c6.30318,-8.40424 8.04312,-16.08623 4.89153,-21.01059c-6.30318,-10.86642 -32.2053,-7.71483 -57.05689,6.6643c-10.5053,5.94206 -19.59894,13.29576 -25.90212,20.64947l-2.79047,-2.10106c6.6643,-8.04312 16.08623,-15.39682 26.59153,-21.33888c27.31377,-15.75794 54.26642,-17.859 61.5873,-5.25265c3.841,6.30318 1.73994,15.0357 -5.25265,24.85159c-6.6643,9.09365 -17.49788,18.54841 -30.10424,25.90212c-15.06853,8.76536 -30.79365,13.29576 -42.34947,13.29576z" fill="#014387"/>
    </g>
    <g stroke="null" id="svg_9">
     <g stroke="null" id="svg_10">
      <path stroke="null" id="svg_11" d="m62.69259,97.60575c-3.841,0 -6.99259,-3.15159 -6.99259,-6.99259c0,-3.841 3.15159,-6.99259 6.99259,-6.99259c3.841,0 6.99259,3.15159 6.99259,6.99259c0,3.841 -3.15159,6.99259 -6.99259,6.99259zm0,-10.5053c-2.10106,0 -3.51271,1.41165 -3.51271,3.51271c0,2.10106 1.41165,3.51271 3.51271,3.51271c2.10106,0 3.51271,-1.41165 3.51271,-3.51271c0,-2.10106 -1.41165,-3.51271 -3.51271,-3.51271z" fill="#014387"/>
     </g>
    </g>
    <g stroke="null" id="svg_12">
     <g stroke="null" id="svg_13">
      <path stroke="null" id="svg_14" d="m157.20742,97.60575c-3.841,0 -6.99259,-3.15159 -6.99259,-6.99259c0,-3.841 3.15159,-6.99259 6.99259,-6.99259c3.841,0 6.99259,3.15159 6.99259,6.99259c0,3.841 -3.15159,6.99259 -6.99259,6.99259zm0,-10.5053c-2.10106,0 -3.51271,1.41165 -3.51271,3.51271c0,2.10106 1.41165,3.51271 3.51271,3.51271c2.10106,0 3.51271,-1.41165 3.51271,-3.51271c-0.03283,-2.10106 -1.41165,-3.51271 -3.51271,-3.51271z" fill="#014387"/>
     </g>
    </g>
    <g stroke="null" id="svg_15">
     <g stroke="null" id="svg_16">
      <path stroke="null" id="svg_17" d="m97.68836,36.37957c-3.841,0 -6.99259,-3.15159 -6.99259,-6.99259c0,-3.841 3.15159,-6.99259 6.99259,-6.99259c3.841,0 6.99259,3.15159 6.99259,6.99259c0.03283,3.841 -3.11876,6.99259 -6.99259,6.99259zm0,-10.5053c-2.10106,0 -3.51271,1.41165 -3.51271,3.51271c0,2.10106 1.41165,3.51271 3.51271,3.51271c2.10106,0 3.51271,-1.41165 3.51271,-3.51271c0,-2.13389 -1.41165,-3.51271 -3.51271,-3.51271z" fill="#014387"/>
     </g>
    </g>
    <g stroke="null" id="svg_18">
     <g stroke="null" id="svg_19">
      <path stroke="null" id="svg_20" d="m95.94842,90.61316l-3.51271,0c0,-9.45477 8.04312,-13.29576 11.88412,-13.98517l0.36112,3.51271c0.03283,-0.03283 -8.73253,1.37882 -8.73253,10.47247z" fill="#014387"/>
     </g>
     <g stroke="null" id="svg_21">
      <path stroke="null" id="svg_22" d="m127.4643,90.61316l-3.51271,0c0,-9.09365 -8.76536,-10.5053 -9.09365,-10.5053l0.36112,-3.51271c4.53041,0.72224 12.24524,4.56324 12.24524,14.018z" fill="#014387"/>
     </g>
     <g stroke="null" id="svg_23">
      <path stroke="null" id="svg_24" d="m109.93359,81.88064c-5.94206,0 -10.5053,-5.61377 -10.5053,-13.29576c0,-5.25265 1.41165,-11.55583 10.5053,-11.55583s10.5053,6.30318 10.5053,11.55583c0,7.682 -4.53041,13.29576 -10.5053,13.29576zm0,-21.01059c-5.25265,0 -6.99259,2.10106 -6.99259,8.04312c0,4.89153 2.46218,9.81589 6.99259,9.81589s6.99259,-4.89153 6.99259,-9.81589c0.03283,-5.94206 -1.73994,-8.04312 -6.99259,-8.04312z" fill="#014387"/>
     </g>
    </g>
   </g>
  </g>
  <rect transform="translate(-144,25) " x="17" y="-8" id="svg_25" height="172.3" width="180.90002" fill="none" stroke="null"/>
 </g>

</svg>