<svg width="212" height="150" xmlns="http://www.w3.org/2000/svg">
 <g>
  <title>Layer 1</title>
  <g stroke="null" id="svg_1">
   <path stroke="null" fill="#014387" d="m136.82915,59.9731c-0.70537,0.37953 -0.98139,1.26509 -0.61337,1.99252c2.88284,5.69292 4.41626,12.11328 4.41626,18.56526c0,10.69005 -4.04823,20.74755 -11.378,28.3065c-7.32977,7.55894 -17.08234,11.73375 -27.44828,11.73375s-20.11851,-4.17481 -27.44828,-11.73375c-7.32977,-7.55894 -11.378,-17.61644 -11.378,-28.3065s4.04823,-20.74755 11.378,-28.3065s17.08234,-11.73375 27.44828,-11.73375c6.28703,0 12.51273,1.58137 18.03306,4.55434c0.70537,0.37953 1.56409,0.09488 1.93212,-0.63255c0.36802,-0.72743 0.092,-1.613 -0.61337,-1.99252c-5.91901,-3.19437 -12.60473,-4.90224 -19.3518,-4.90224c-11.13265,0 -21.59059,4.45946 -29.47239,12.5877s-12.17538,18.97642 -12.17538,30.45716s4.32425,22.26567 12.20605,30.3939s18.33974,12.5877 29.47239,12.5877s21.59059,-4.45946 29.47239,-12.5877s12.20605,-18.91317 12.20605,-30.3939c0,-6.95802 -1.65609,-13.85279 -4.75361,-19.95687c-0.33735,-0.72743 -1.22674,-1.01207 -1.93212,-0.63255l0.00002,-0.00001z" id="svg_2"/>
   <path stroke="null" fill="#014387" d="m120.29885,54.02715c0.42936,-0.6958 0.24535,-1.613 -0.42936,-2.05578c-5.36698,-3.60552 -11.59268,-5.50316 -18.03306,-5.50316c-18.21707,0 -33.0606,15.30764 -33.0606,34.0943s14.84354,34.0943 33.0606,34.0943s33.0606,-15.30764 33.0606,-34.0943c0,-6.64174 -1.84011,-13.06211 -5.33631,-18.59689c-0.42936,-0.6958 -1.31874,-0.88557 -1.99345,-0.44278c-0.67471,0.44278 -0.85872,1.35998 -0.42936,2.05578c3.18952,5.06038 4.87629,10.91144 4.87629,16.98389c0,17.17366 -13.55546,31.12133 -30.17777,31.12133s-30.17777,-13.9793 -30.17777,-31.12133s13.55546,-31.12133 30.17777,-31.12133c5.88835,0 11.56201,1.7395 16.46897,5.02875c0.67471,0.44278 1.56409,0.22139 1.99345,-0.44278z" id="svg_3"/>
   <path stroke="null" fill="#014387" d="m115.26923,61.20656c0.42936,-0.6958 0.21468,-1.613 -0.46002,-2.05578c-3.86422,-2.49857 -8.37249,-3.82691 -12.97276,-3.82691c-13.46345,0 -24.44277,11.29097 -24.44277,25.20701s10.94864,25.20701 24.44277,25.20701s24.44277,-11.29097 24.44277,-25.20701c0,-4.7441 -1.28807,-9.3617 -3.71088,-13.37838c-0.42936,-0.6958 -1.31874,-0.91719 -1.99345,-0.47441c-0.67471,0.44278 -0.88938,1.35998 -0.46002,2.05578c2.14679,3.54226 3.28152,7.59057 3.28152,11.79701c0,12.27142 -9.66057,22.23404 -21.55993,22.23404s-21.55993,-9.96262 -21.55993,-22.23404s9.66057,-22.23404 21.55993,-22.23404c4.04823,0 8.00447,1.17021 11.43934,3.38413c0.67471,0.44278 1.56409,0.22139 1.99345,-0.47441l-0.00001,0z" id="svg_4"/>
   <path stroke="null" fill="#014387" d="m109.41154,67.84832c0.33735,-0.72743 0.06134,-1.613 -0.67471,-1.99252c-2.14679,-1.07533 -4.47759,-1.64462 -6.90041,-1.64462c-8.70985,0 -15.82493,7.30592 -15.82493,16.31972s7.08442,16.31972 15.82493,16.31972s15.82493,-7.30592 15.82493,-16.31972c0,-2.49857 -0.52136,-4.90224 -1.59476,-7.11615c-0.33735,-0.72743 -1.19607,-1.0437 -1.93212,-0.6958c-0.70537,0.3479 -1.01206,1.23346 -0.67471,1.99252c0.85872,1.83439 1.28807,3.79528 1.28807,5.81944c0,7.36917 -5.79634,13.34675 -12.94209,13.34675s-12.94209,-5.97757 -12.94209,-13.34675s5.79634,-13.34675 12.94209,-13.34675c1.99345,0 3.8949,0.44278 5.643,1.32835c0.76671,0.37953 1.62543,0.09488 1.96278,-0.66418l0.00001,-0.00001z" id="svg_5"/>
   <path stroke="null" fill="#014387" d="m100.94705,76.19794c0.76671,-0.15814 1.25741,-0.94882 1.10407,-1.77113c-0.15334,-0.79068 -0.92006,-1.29672 -1.71743,-1.13859c-3.28152,0.72743 -5.67366,3.76366 -5.67366,7.24267c0,4.07993 3.22019,7.4008 7.17642,7.4008c3.4042,0 6.34837,-2.49857 7.05375,-5.91432c0.15334,-0.79068 -0.33735,-1.58137 -1.13473,-1.7395c-0.76671,-0.15814 -1.53342,0.3479 -1.68677,1.17021c-0.39869,2.05578 -2.17746,3.54226 -4.23225,3.54226c-2.39214,0 -4.32425,-1.99252 -4.32425,-4.45946c0.03066,-2.05578 1.47208,-3.89017 3.43487,-4.33295l-0.00001,0.00001z" id="svg_6"/>
   <path stroke="null" fill="#014387" d="m152.04071,38.46649c-0.21468,-0.56929 -0.73605,-0.91719 -1.31874,-0.91719l-7.17642,0l0,-7.4008c0,-0.60092 -0.33735,-1.13859 -0.88938,-1.35998c-0.55203,-0.22139 -1.16541,-0.09488 -1.56409,0.31627l-17.97172,18.53364c-0.27601,0.28464 -0.42936,0.66418 -0.42936,1.0437l0,8.28637l-21.86662,22.55031c-0.55203,0.56929 -0.55203,1.51811 0,2.08741c0.27601,0.28464 0.64404,0.44278 1.01206,0.44278s0.73605,-0.15814 1.01206,-0.44278l21.86662,-22.55031l8.03514,0c0.36802,0 0.73605,-0.15814 1.01206,-0.44278l17.97172,-18.53364c0.42936,-0.41116 0.55203,-1.0437 0.30669,-1.613l0,-0.00001zm-19.87316,17.61644l-4.5696,0l11.19399,-11.54399c0.55203,-0.56929 0.55203,-1.51811 0,-2.08741c-0.55203,-0.56929 -1.47208,-0.56929 -2.02412,0l-11.19399,11.54399l0,-4.71248l15.08888,-15.56066l0,5.3134c0,0.82231 0.64404,1.48648 1.44142,1.48648l5.1523,0l-15.08888,15.56066l0,0.00001z" id="svg_7"/>
  </g>
 </g>

</svg>